# xmcd
#
# Track frame offsets:
# 150
# 17509
# 31385
# 49805
# 71086
# 87260
# 107060
# 128607
# 147946
# 164199
# 183459
# 203228
# 224071
# 242081
# 260742
#
# Disc length: 3824 seconds
#
#
# Revision: 1
# Processed by: cddbd v1.5.2PL0 Copyright (c) Steve Scherf et al.
# Submitted via: FreeRIP 2.942 
#
DISCID=e60eee0f
DTITLE=Capitan Caribe - J. Punset - Los Grandes Sesiones De La Salsa 3 [CD 2)
DYEAR=1900
DGENRE=Salsa
TTITLE0=Que Te Pasa - Ray Cruz
TTITLE1=Dime Corazon - Conexion Salsera
TTITLE2=Sin Sentimiento  - Grupo Gale
TTITLE3=Galante Bogaloo - Jerry Galante
TTITLE4=Antigua Capitana - El Nino Jesus
TTITLE5=A Tu Manera No - Mario Feliciano
TTITLE6=La Culpa La Tiene - Grupo Niche
TTITLE7=El Chinito De Salinas - Kim De Los Santos
TTITLE8=Amor Amor - Domingo
TTITLE9=Un Italiano En La Salsa -  Roberto D' Milan
TTITLE10=Volvere - Jorge Luis
TTITLE11=De Hijo A Padre - Jimmy El Leon
TTITLE12=Meniando La Cola - Sexappeal
TTITLE13=El Espejo Traicionero - Raulin Rodriguez Jr
TTITLE14=15 El Negro Esta Cocinando - Pedrito Calvo
EXTD=
EXTT0=
EXTT1=
EXTT2=
EXTT3=
EXTT4=
EXTT5=
EXTT6=
EXTT7=
EXTT8=
EXTT9=
EXTT10=
EXTT11=
EXTT12=
EXTT13=
EXTT14=
PLAYORDER=
